PathFileType	4	(X/Y/Z)	./resultDataOpenSim/trcMotMarkerGrf/sub09/qtm-02-01.trc
DataRate	CameraRate	NumFrames	NumMarkers	Units	OrigDataRate	OrigDataStartFrame	OrigNumFrames
250.000000	250.000000	8	24	m	250.000000	426	486
Frame#	Time	L.Toe.Tip			R.Toe.Tip			L.Ankle.Lat			R.Ankle.Lat			L.Ankle.Med			R.Ankle.Med			L.Heel			R.Heel			L.Knee.Lat			R.Knee.Lat			L.Knee.Med			R.Knee.Med			L.Thigh.Upper			R.Thigh.Upper			L.ASIS			R.ASIS			V.Sacral			L.Acromium			R.Acromium			C7			L.Elbow			R.Elbow			L.Wrist.Lat			R.Wrist.Lat
		X1	Y1	Z1	X2	Y2	Z2	X3	Y3	Z3	X4	Y4	Z4	X5	Y5	Z5	X6	Y6	Z6	X7	Y7	Z7	X8	Y8	Z8	X9	Y9	Z9	X10	Y10	Z10	X11	Y11	Z11	X12	Y12	Z12	X13	Y13	Z13	X14	Y14	Z14	X15	Y15	Z15	X16	Y16	Z16	X17	Y17	Z17	X18	Y18	Z18	X19	Y19	Z19	X20	Y20	Z20	X21	Y21	Z21	X22	Y22	Z22	X23	Y23	Z23	X24	Y24	Z24

426	1.7	1.6955729	0.11026167	-0.041195395	1.0008348	0.03861993	0.061636224	1.5431597	0.084390091	-0.073885873	0.86177419	0.083118609	0.099395835	1.5636515	0.11150695	0.018864077	0.88435268	0.12146531	0.0089721412	1.4958244	0.022998276	-0.022814351	0.79023343	0.082824334	0.048815779	1.4136434	0.4829923	-0.10600467	1.1000825	0.47764265	0.17107551	1.4168473	0.47455569	0.020757853	1.0888309	0.47473514	0.044914619	1.2277411	0.85416171	-0.14080315	1.1727741	0.87478701	0.22740307	1.293501	0.94504162	-0.074741535	1.2821137	0.9541131	0.16599619	1.1178229	0.99922059	0.026501951	1.2511685	1.4021437	-0.13136252	1.2364236	1.4157998	0.20033187	1.1779461	1.4563816	0.03368076	1.0894298	1.0701227	-0.18579887	1.1218296	1.0625314	0.29610161	1.1974323	0.8348979	-0.23528706	1.3236447	0.87260432	0.27953826
427	1.704	1.6976583	0.10526284	-0.040418773	1.0010671	0.03872124	0.061810602	1.5448431	0.082131439	-0.073164572	0.86286614	0.084872633	0.099916041	1.5654585	0.10898016	0.019728218	0.88578835	0.1230703	0.009538687	1.495898	0.022172775	-0.022796001	0.79121689	0.08554274	0.04936457	1.4199041	0.48212744	-0.10600248	1.1046952	0.47648176	0.17128846	1.4236908	0.47420467	0.020573033	1.0947506	0.47354382	0.045186234	1.2332209	0.85368952	-0.14148696	1.1788008	0.87359847	0.22704849	1.2995499	0.94440991	-0.075194502	1.2888241	0.95294279	0.16569895	1.1237818	0.99816781	0.026204465	1.2567305	1.4012556	-0.13174482	1.2418064	1.4148343	0.19994084	1.1832661	1.4553784	0.033276523	1.0955606	1.0689323	-0.1862841	1.1272133	1.0616061	0.29530586	1.2038588	0.83385439	-0.23575155	1.3280261	0.87068941	0.27931272
428	1.708	1.6999767	0.099656657	-0.039552133	1.0013383	0.038837364	0.062012794	1.5466026	0.080207993	-0.072365384	0.86412072	0.086715337	0.10041583	1.5674194	0.10679264	0.020678074	0.88729939	0.12483257	0.010325967	1.4958136	0.022010278	-0.022907261	0.79230735	0.088405775	0.049918303	1.4260641	0.48123309	-0.10608679	1.109839	0.47529779	0.17150172	1.4304877	0.47392407	0.020359096	1.1007511	0.47229361	0.045390782	1.2387026	0.8532165	-0.14217871	1.1849167	0.87244248	0.22666592	1.3055773	0.94384205	-0.075635789	1.2952505	0.9518318	0.16538957	1.1297802	0.99717263	0.026015389	1.2622845	1.4004041	-0.13213568	1.2471986	1.4139119	0.19953642	1.1885713	1.4544043	0.032876104	1.1017132	1.0677855	-0.18677836	1.1326191	1.0607192	0.29449192	1.2103413	0.83285752	-0.23620706	1.3323561	0.86877534	0.2790983
429	1.712	1.7027933	0.093634472	-0.03861985	1.0016443	0.038972581	0.06222367	1.5486656	0.078803811	-0.071540026	0.8655984	0.088635817	0.10089036	1.5698917	0.10507854	0.021601626	0.88892663	0.12669289	0.01126353	1.4960157	0.022599969	-0.022820054	0.7935059	0.091409641	0.050513976	1.4321096	0.48036738	-0.10625839	1.1158523	0.47413624	0.17175317	1.4370643	0.47369149	0.020127369	1.1069508	0.47095304	0.045641208	1.2442467	0.85272891	-0.1428479	1.1911323	0.87129867	0.22625279	1.3115483	0.94334662	-0.076046227	1.3015098	0.95076348	0.16506881	1.1357762	0.9962783	0.025915435	1.2678269	1.399591	-0.13253912	1.2526089	1.4130206	0.19912486	1.1938794	1.4534936	0.032468247	1.1078785	1.0666667	-0.18727567	1.1380534	1.0598614	0.29365708	1.2168742	0.83190095	-0.23665507	1.33665	0.86686545	0.27889314
430	1.716	1.7061519	0.08769774	-0.037641984	1.0019497	0.039096291	0.062444227	1.5511544	0.077957212	-0.070814069	0.86721811	0.090620092	0.10139147	1.5729974	0.1037641	0.022363141	0.89069757	0.12858087	0.012199471	1.4967427	0.023846258	-0.022534336	0.79482326	0.094553165	0.051195143	1.4380719	0.47961695	-0.10650538	1.1225973	0.47299849	0.17204465	1.4432701	0.47349805	0.019896305	1.1134267	0.469513	0.04600325	1.2498956	0.85222645	-0.14346966	1.1974707	0.870103	0.22582551	1.3174498	0.94293942	-0.076434612	1.3077466	0.94971842	0.16472232	1.1417286	0.99550555	0.025848421	1.273356	1.3988233	-0.13296015	1.258041	1.4121655	0.19871738	1.1992163	1.4526915	0.032042942	1.1140567	1.065562	-0.18777044	1.1434947	1.0590215	0.29278745	1.223449	0.83097974	-0.23710407	1.3409189	0.86496234	0.27869427
431	1.72	1.7098299	0.082353359	-0.036644943	1.002236	0.039196051	0.06264675	1.554034	0.077509898	-0.070312419	0.8688106	0.092671293	0.10200452	1.5765243	0.10266415	0.022882522	0.89259927	0.13047908	0.013064004	1.4979542	0.025467636	-0.02239454	0.79628163	0.097840211	0.0519945	1.4440108	0.47908753	-0.10680538	1.1296857	0.47187147	0.17234048	1.4491638	0.47337694	0.019684346	1.1200605	0.46800554	0.046348296	1.2556628	0.85173185	-0.14403658	1.2039425	0.86882779	0.22540486	1.3232934	0.94262997	-0.07683094	1.3140137	0.94869334	0.16433998	1.147629	0.99484695	0.025789988	1.2788699	1.3981113	-0.1334024	1.2634875	1.4113675	0.19832563	1.2046128	1.452032	0.031607619	1.1202526	1.0644685	-0.18826118	1.1489024	1.0581993	0.29186206	1.2300644	0.83009587	-0.23756028	1.3451584	0.86307159	0.27850379
432	1.724	1.7134646	0.077815628	-0.03567036	1.0025261	0.039298472	0.062790554	1.5571565	0.077219203	-0.070084311	0.87028253	0.094796332	0.1027771	1.5800683	0.1016504	0.023162721	0.89461183	0.13241606	0.01390443	1.4994752	0.027119726	-0.022719379	0.79790457	0.10127904	0.052916932	1.4499982	0.47888225	-0.1071358	1.1367373	0.47075218	0.17259442	1.4549799	0.47341862	0.019502539	1.1266973	0.46649597	0.046528469	1.2615425	0.85129543	-0.14456359	1.2105415	0.86750111	0.22500174	1.3290974	0.94242396	-0.077259238	1.3203023	0.94770053	0.16393167	1.1534869	0.99428853	0.0257549	1.2843639	1.3974683	-0.13386372	1.2689413	1.4106449	0.19795623	1.2100925	1.451518	0.031179229	1.1264701	1.063394	-0.18874429	1.1542676	1.0574211	0.29087389	1.2367269	0.82925664	-0.23802114	1.3493653	0.86119707	0.27832266
433	1.728	1.7167485	0.073965629	-0.034743786	1.0028571	0.039433015	0.06288623	1.5603428	0.076920201	-0.070094513	0.87174499	0.097021559	0.10369372	1.5833056	0.10071152	0.02325392	0.89673277	0.13442942	0.014796616	1.5011241	0.028548073	-0.023493875	0.79970761	0.10487919	0.053931886	1.4561269	0.47907355	-0.10747964	1.1435297	0.46964553	0.17277656	1.4608818	0.47374284	0.019344878	1.1333975	0.4650502	0.046618733	1.2675211	0.85098735	-0.14506955	1.2172486	0.86616073	0.22461841	1.334871	0.94233621	-0.077714605	1.3265888	0.9467596	0.16351692	1.1593058	0.99382021	0.025762315	1.2898373	1.3969074	-0.13433804	1.2744017	1.4100071	0.19760766	1.215647	1.4511192	0.030770838	1.1327144	1.0623544	-0.18921671	1.159638	1.0567276	0.28985	1.243441	0.82847201	-0.23847868	1.3535453	0.8593408	0.27814601
